<svg xmlns="http://www.w3.org/2000/svg" xmlns:xlink="http://www.w3.org/1999/xlink" viewBox="0 0 1195.14 241.23" width="200" height="41"><defs><style>.cls-1{fill:#0e52b8;}.cls-2{fill:#0180ff;}.cls-3{fill:url(#linear-gradient);}.cls-4{stroke:#fff;stroke-miterlimit:10;}.cls-5{fill:url(#linear-gradient-8);}</style><linearGradient id="linear-gradient" x1="297.41" y1="124.48" x2="1068.58" y2="124.48" gradientUnits="userSpaceOnUse"><stop offset="0" stop-color="#0e52b8"/><stop offset="0.11" stop-color="#0d4caa"/><stop offset="0.31" stop-color="#0a3c86"/><stop offset="0.58" stop-color="#06214b"/><stop offset="0.89"/></linearGradient><linearGradient id="linear-gradient-8" x1="297.41" y1="124.48" x2="1068.58" y2="124.48" gradientUnits="userSpaceOnUse"><stop offset="0" stop-color="#0e52b8"/><stop offset="1" stop-color="#0180ff"/></linearGradient></defs><g id="Layer_2" data-name="Layer 2"><g id="Layer_1-2" data-name="Layer 1"><polygon class="cls-1" points="189 132.34 243 101.28 243 38.95 189 70.02 189 132.34"/><polygon class="cls-1" points="0 38.87 0 101.19 53.97 132.27 53.95 69.94 0 38.87"/><polygon class="cls-2" points="112.47 31.12 58.5 0 4.52 31.09 58.5 62.18 112.47 31.12"/><polygon class="cls-1" points="62.98 147.84 63 210.13 117 241.23 117 178.96 62.98 147.84"/><polygon class="cls-1" points="126 241.13 179.99 210.03 180 147.9 126 178.96 126 241.13"/><polygon class="cls-2" points="238.48 31.16 184.5 0.07 130.51 31.13 184.46 62.24 238.48 31.16"/><polygon class="cls-1" points="117 106.26 62.95 75.13 62.98 137.46 117 168.57 117 106.26"/><polygon class="cls-1" points="126 106.26 126 168.58 180 137.52 180 75.19 126 106.26"/><polygon class="cls-2" points="67.52 67.37 121.5 98.47 175.44 67.43 121.49 36.32 67.52 67.37"/><path class="cls-3" d="M339.21,184.74q-17-.5-29.1-10.65Q297.4,163.74,297.41,149V80.25q0-14.85,12.7-25.2T341,44.7H364.6q17.86,0,30.86,10.35,12.69,10.35,12.69,25.2V149q0,14.75-12.69,25.09a47.12,47.12,0,0,1-29,10.65v19.53H339.21ZM382.18,81q0-6.25-6-10.94a20.19,20.19,0,0,0-12.69-4.39H341.75a20.2,20.2,0,0,0-12.7,4.39Q323.4,74.77,323.39,81v67.18q0,6.16,5.66,10.84a20.21,20.21,0,0,0,12.7,4.4h21.78a20.2,20.2,0,0,0,12.69-4.4q6-4.68,6-10.84Z"/><path class="cls-3" d="M457.47,44.7V148.21q0,6.16,5.67,10.84a20.16,20.16,0,0,0,12.69,4.4h21.78a20.16,20.16,0,0,0,12.69-4.4q6-4.68,6-10.84V44.7h26V149q0,14.75-12.7,25.09-13,10.65-30.86,10.65H475.05q-18.17,0-30.86-10.65Q431.5,163.74,431.49,149V44.7Z"/><path class="cls-3" d="M616.46,83.27,590.58,184.74H563.33l39.45-140H630l39.45,140H642.24Z"/><path class="cls-3" d="M717.63,184.74H691.06V44.7h35.75L772,134.05V44.7h26.76v140H772.51L717.63,75.66Z"/><path class="cls-3" d="M866.85,66.77h-45V44.7H940.28V66.77h-45v118H866.85Z"/><path class="cls-3" d="M962.26,148.7v-68q0-14.74,12.59-25.29,12.6-10.24,30.47-10.74h60.74V67.06h-58.88A21.91,21.91,0,0,0,994.29,71q-5.76,4.48-5.76,10.55v18.65h77.53v22.56H988.53v25.19q0,6.06,5.76,10.55a21.91,21.91,0,0,0,12.89,3.91h58.88v22.36h-61.52q-17.87-.78-30-11Q962.26,163.15,962.26,148.7Z"/><path class="cls-3" d="M1141.26,88.16l23.83-43.46h29.2l-38.67,69.53,38.67,70.51h-28.23l-24.8-44.63-24.9,44.63h-28.22l38.67-70.51L1088.14,44.7h29.19Z"/><path class="cls-4" d="M339.21,184.74q-17-.5-29.1-10.65Q297.4,163.74,297.41,149V80.25q0-14.85,12.7-25.2T341,44.7H364.6q17.86,0,30.86,10.35,12.69,10.35,12.69,25.2V149q0,14.75-12.69,25.09a47.12,47.12,0,0,1-29,10.65v19.53H339.21ZM382.18,81q0-6.25-6-10.94a20.19,20.19,0,0,0-12.69-4.39H341.75a20.2,20.2,0,0,0-12.7,4.39Q323.4,74.77,323.39,81v67.18q0,6.16,5.66,10.84a20.21,20.21,0,0,0,12.7,4.4h21.78a20.2,20.2,0,0,0,12.69-4.4q6-4.68,6-10.84Z"/><path class="cls-4" d="M457.47,44.7V148.21q0,6.16,5.67,10.84a20.16,20.16,0,0,0,12.69,4.4h21.78a20.16,20.16,0,0,0,12.69-4.4q6-4.68,6-10.84V44.7h26V149q0,14.75-12.7,25.09-13,10.65-30.86,10.65H475.05q-18.17,0-30.86-10.65Q431.5,163.74,431.49,149V44.7Z"/><path class="cls-4" d="M616.46,83.27,590.58,184.74H563.33l39.45-140H630l39.45,140H642.24Z"/><path class="cls-4" d="M717.63,184.74H691.06V44.7h35.75L772,134.05V44.7h26.76v140H772.51L717.63,75.66Z"/><path class="cls-4" d="M866.85,66.77h-45V44.7H940.28V66.77h-45v118H866.85Z"/><path class="cls-4" d="M962.26,148.7v-68q0-14.74,12.59-25.29,12.6-10.24,30.47-10.74h60.74V67.06h-58.88A21.91,21.91,0,0,0,994.29,71q-5.76,4.48-5.76,10.55v18.65h77.53v22.56H988.53v25.19q0,6.06,5.76,10.55a21.91,21.91,0,0,0,12.89,3.91h58.88v22.36h-61.52q-17.87-.78-30-11Q962.26,163.15,962.26,148.7Z"/><path class="cls-4" d="M1141.26,88.16l23.83-43.46h29.2l-38.67,69.53,38.67,70.51h-28.23l-24.8-44.63-24.9,44.63h-28.22l38.67-70.51L1088.14,44.7h29.19Z"/><path class="cls-5" d="M339.21,184.74q-17-.5-29.1-10.65Q297.4,163.74,297.41,149V80.25q0-14.85,12.7-25.2T341,44.7H364.6q17.86,0,30.86,10.35,12.69,10.35,12.69,25.2V149q0,14.75-12.69,25.09a47.12,47.12,0,0,1-29,10.65v19.53H339.21ZM382.18,81q0-6.25-6-10.94a20.19,20.19,0,0,0-12.69-4.39H341.75a20.2,20.2,0,0,0-12.7,4.39Q323.4,74.77,323.39,81v67.18q0,6.16,5.66,10.84a20.21,20.21,0,0,0,12.7,4.4h21.78a20.2,20.2,0,0,0,12.69-4.4q6-4.68,6-10.84Z"/><path class="cls-5" d="M457.47,44.7V148.21q0,6.16,5.67,10.84a20.16,20.16,0,0,0,12.69,4.4h21.78a20.16,20.16,0,0,0,12.69-4.4q6-4.68,6-10.84V44.7h26V149q0,14.75-12.7,25.09-13,10.65-30.86,10.65H475.05q-18.17,0-30.86-10.65Q431.5,163.74,431.49,149V44.7Z"/><path class="cls-5" d="M616.46,83.27,590.58,184.74H563.33l39.45-140H630l39.45,140H642.24Z"/><path class="cls-5" d="M717.63,184.74H691.06V44.7h35.75L772,134.05V44.7h26.76v140H772.51L717.63,75.66Z"/><path class="cls-5" d="M866.85,66.77h-45V44.7H940.28V66.77h-45v118H866.85Z"/><path class="cls-5" d="M962.26,148.7v-68q0-14.74,12.59-25.29,12.6-10.24,30.47-10.74h60.74V67.06h-58.88A21.91,21.91,0,0,0,994.29,71q-5.76,4.48-5.76,10.55v18.65h77.53v22.56H988.53v25.19q0,6.06,5.76,10.55a21.91,21.91,0,0,0,12.89,3.91h58.88v22.36h-61.52q-17.87-.78-30-11Q962.26,163.15,962.26,148.7Z"/><path class="cls-5" d="M1141.26,88.16l23.83-43.46h29.2l-38.67,69.53,38.67,70.51h-28.23l-24.8-44.63-24.9,44.63h-28.22l38.67-70.51L1088.14,44.7h29.19Z"/></g></g></svg>